<svg width="24" height="24" viewBox="0 0 24 24" fill="none" xmlns="http://www.w3.org/2000/svg">
<path d="M20.621 8.45C19.571 3.83 15.5409 1.75 12.0009 1.75H11.9909C8.46095 1.75 4.42095 3.82 3.37095 8.44C2.20095 13.6 5.36095 17.97 8.22095 20.72C9.23467 21.7012 11.1744 23.2499 12.0009 23.25C12.8275 23.2501 14.7209 21.74 15.7709 20.72C18.6309 17.97 21.791 13.61 20.621 8.45ZM12.0009 13.46C11.5873 13.46 11.1777 13.3785 10.7955 13.2202C10.4133 13.0619 10.0661 12.8299 9.77356 12.5374C9.48106 12.2449 9.24903 11.8976 9.09073 11.5155C8.93243 11.1333 8.85095 10.7237 8.85095 10.31C8.85095 9.89634 8.93243 9.48672 9.09073 9.10455C9.24903 8.72237 9.48106 8.37512 9.77356 8.08261C10.0661 7.79011 10.4133 7.55808 10.7955 7.39978C11.1777 7.24148 11.5873 7.16 12.0009 7.16C12.8364 7.16 13.6376 7.49187 14.2283 8.08261C14.8191 8.67335 15.1509 9.47457 15.1509 10.31C15.1509 11.1454 14.8191 11.9466 14.2283 12.5374C13.6376 13.1281 12.8364 13.46 12.0009 13.46Z" fill="#041542"/>
</svg>
