<svg width="25" height="25" viewBox="0 0 25 25" fill="none" xmlns="http://www.w3.org/2000/svg">
<path fill-rule="evenodd" clip-rule="evenodd" d="M17.3778 6.82215C17.6852 7.12954 17.7828 7.58912 17.6267 7.99485L15.1267 14.4948C15.015 14.7853 14.7854 15.0149 14.4949 15.1267L7.99491 17.6267C7.58918 17.7827 7.1296 17.6852 6.82221 17.3778C6.51483 17.0704 6.4173 16.6108 6.57335 16.2051L9.07335 9.70509C9.18508 9.41459 9.41465 9.18502 9.70515 9.07329L16.2052 6.57329C16.6109 6.41724 17.0705 6.51477 17.3778 6.82215ZM10.9512 10.9511L9.51519 14.6848L13.2489 13.2488L14.6849 9.51512L10.9512 10.9511Z" fill="#3870FF"/>
<path fill-rule="evenodd" clip-rule="evenodd" d="M0 12.1C0 5.41735 5.41735 0 12.1 0C18.7826 0 24.2 5.41735 24.2 12.1C24.2 18.7826 18.7826 24.2 12.1 24.2C5.41735 24.2 0 18.7826 0 12.1ZM12.1 2.2C6.63238 2.2 2.2 6.63238 2.2 12.1C2.2 17.5676 6.63238 22 12.1 22C17.5676 22 22 17.5676 22 12.1C22 6.63238 17.5676 2.2 12.1 2.2Z" fill="#3870FF"/>
</svg>
