<svg width="24" height="24" viewBox="0 0 24 24" fill="none" xmlns="http://www.w3.org/2000/svg">
<g clip-path="url(#clip0_3_17)">
<path d="M23.5612 21.4454L18.9161 16.7983C22.3918 12.1535 21.4441 5.57052 16.7993 2.0948C12.1545 -1.38092 5.57151 -0.433205 2.09579 4.21157C-1.37993 8.85634 -0.432213 15.4393 4.21256 18.9151C7.94363 21.7071 13.0682 21.7071 16.7993 18.9151L21.4464 23.5622C22.0304 24.1462 22.9772 24.1462 23.5612 23.5622C24.1451 22.9782 24.1451 22.0314 23.5612 21.4474L23.5612 21.4454ZM10.5446 18.0181C6.41659 18.0181 3.07018 14.6717 3.07018 10.5437C3.07018 6.4156 6.41659 3.06919 10.5446 3.06919C14.6727 3.06919 18.0191 6.4156 18.0191 10.5437C18.0147 14.6698 14.6709 18.0137 10.5446 18.0181Z" fill="#3870FF"/>
</g>
<defs>
<clipPath id="clip0_3_17">
<rect width="24" height="24" fill="white"/>
</clipPath>
</defs>
</svg>
