<svg width="25" height="24" viewBox="0 0 25 24" fill="none" xmlns="http://www.w3.org/2000/svg">
<g clip-path="url(#clip0_41_30)">
<path d="M22.7548 13.6619L20.8548 6.82593C20.2979 4.82327 19.0875 3.06422 17.4161 1.8284C15.7447 0.592587 13.7082 -0.049079 11.6303 0.00540109C9.55233 0.0598812 7.55222 0.807381 5.94788 2.12908C4.34353 3.45078 3.22702 5.27084 2.77581 7.29993L1.30481 13.9149C1.14233 14.6459 1.14608 15.404 1.3158 16.1333C1.48552 16.8625 1.81688 17.5444 2.28539 18.1285C2.75391 18.7126 3.34763 19.184 4.02272 19.5079C4.69781 19.8318 5.43703 20 6.18581 19.9999H7.29981C7.52933 21.1302 8.14254 22.1464 9.03555 22.8763C9.92857 23.6062 11.0465 24.0049 12.1998 24.0049C13.3532 24.0049 14.4711 23.6062 15.3641 22.8763C16.2571 22.1464 16.8703 21.1302 17.0998 19.9999H17.9378C18.7086 20 19.469 19.8218 20.1596 19.4794C20.8501 19.1369 21.4522 18.6394 21.9186 18.0258C22.3851 17.4122 22.7034 16.699 22.8486 15.942C22.9938 15.185 22.9621 14.4046 22.7558 13.6619H22.7548ZM12.1998 21.9999C11.5816 21.9974 10.9792 21.8039 10.4751 21.4458C9.97104 21.0878 9.58989 20.5828 9.38381 19.9999H15.0158C14.8097 20.5828 14.4286 21.0878 13.9245 21.4458C13.4204 21.8039 12.8181 21.9974 12.1998 21.9999V21.9999ZM20.3258 16.8149C20.0472 17.1846 19.6861 17.4842 19.2714 17.6899C18.8567 17.8956 18.3997 18.0018 17.9368 17.9999H6.18581C5.7366 17.9999 5.29313 17.8989 4.88815 17.7045C4.48317 17.5101 4.12702 17.2273 3.84597 16.8768C3.56493 16.5264 3.36617 16.1173 3.26437 15.6798C3.16257 15.2423 3.16033 14.7874 3.25781 14.3489L4.72781 7.73293C5.08216 6.13914 5.95912 4.70954 7.21927 3.67138C8.47942 2.63323 10.0504 2.04611 11.6826 2.00335C13.3147 1.96059 14.9143 2.46465 16.2271 3.4354C17.5399 4.40615 18.4905 5.78788 18.9278 7.36093L20.8278 14.1969C20.9534 14.6423 20.9733 15.1108 20.8862 15.5653C20.7991 16.0197 20.6072 16.4476 20.3258 16.8149V16.8149Z" fill="#848282"/>
</g>
<defs>
<clipPath id="clip0_41_30">
<rect width="24" height="24" fill="white" transform="translate(0.199951)"/>
</clipPath>
</defs>
</svg>
