<svg width="25" height="24" viewBox="0 0 25 24" fill="none" xmlns="http://www.w3.org/2000/svg">
<g clip-path="url(#clip0_41_26)">
<path d="M17.6999 1.9165C16.5739 1.93402 15.4724 2.24836 14.5067 2.82778C13.541 3.40719 12.7453 4.23117 12.1999 5.2165C11.6545 4.23117 10.8588 3.40719 9.89315 2.82778C8.92745 2.24836 7.82596 1.93402 6.69991 1.9165C4.90485 1.99449 3.21362 2.77976 1.99569 4.10074C0.777769 5.42171 0.132159 7.17103 0.199909 8.9665C0.199909 13.5135 4.98591 18.4795 8.99991 21.8465C9.89613 22.5996 11.0293 23.0125 12.1999 23.0125C13.3706 23.0125 14.5037 22.5996 15.3999 21.8465C19.4139 18.4795 24.1999 13.5135 24.1999 8.9665C24.2677 7.17103 23.6221 5.42171 22.4041 4.10074C21.1862 2.77976 19.495 1.99449 17.6999 1.9165ZM14.1149 20.3165C13.5789 20.7679 12.9007 21.0154 12.1999 21.0154C11.4992 21.0154 10.8209 20.7679 10.2849 20.3165C5.14691 16.0055 2.19991 11.8695 2.19991 8.9665C2.13155 7.70122 2.56628 6.46023 3.40927 5.5142C4.25227 4.56817 5.43514 3.99385 6.69991 3.9165C7.96468 3.99385 9.14755 4.56817 9.99055 5.5142C10.8335 6.46023 11.2683 7.70122 11.1999 8.9665C11.1999 9.23172 11.3053 9.48607 11.4928 9.67361C11.6803 9.86115 11.9347 9.9665 12.1999 9.9665C12.4651 9.9665 12.7195 9.86115 12.907 9.67361C13.0946 9.48607 13.1999 9.23172 13.1999 8.9665C13.1315 7.70122 13.5663 6.46023 14.4093 5.5142C15.2523 4.56817 16.4351 3.99385 17.6999 3.9165C18.9647 3.99385 20.1475 4.56817 20.9905 5.5142C21.8335 6.46023 22.2683 7.70122 22.1999 8.9665C22.1999 11.8695 19.2529 16.0055 14.1149 20.3125V20.3165Z" fill="#848282"/>
</g>
<defs>
<clipPath id="clip0_41_26">
<rect width="24" height="24" fill="white" transform="translate(0.199951)"/>
</clipPath>
</defs>
</svg>
