<svg width="25" height="24" viewBox="0 0 25 24" fill="none" xmlns="http://www.w3.org/2000/svg">
<path d="M19.7 12.5C19.7 11.837 19.9633 11.2011 20.4322 10.7322C20.901 10.2634 21.5369 10 22.2 10V9C22.2 5 21.2 4 17.2 4H7.19995C3.19995 4 2.19995 5 2.19995 9V9.5C2.86299 9.5 3.49888 9.76339 3.96772 10.2322C4.43656 10.7011 4.69995 11.337 4.69995 12C4.69995 12.663 4.43656 13.2989 3.96772 13.7678C3.49888 14.2366 2.86299 14.5 2.19995 14.5V15C2.19995 19 3.19995 20 7.19995 20H17.2C21.2 20 22.2 19 22.2 15C21.5369 15 20.901 14.7366 20.4322 14.2678C19.9633 13.7989 19.7 13.163 19.7 12.5Z" stroke="#848282" stroke-width="2" stroke-linecap="round" stroke-linejoin="round"/>
<path d="M10.2 4V20" stroke="#848282" stroke-width="2" stroke-linecap="round" stroke-linejoin="round" stroke-dasharray="5 5"/>
</svg>
